# xmcd
#
# Track frame offsets:
# 150
# 20848
# 45414
# 67752
# 86237
# 104503
# 128587
# 147238
# 166813
# 184096
#
# Disc length: 2708 seconds
#
#
# Revision: 0
# Processed by: cddbd v1.5PL3 Copyright (c) Steve Scherf et al.
# Submitted via: FreeRIP 2.60 
#
DISCID=810a920a
DTITLE=D.A. And The Hitmen - Looking Past The Blues
DYEAR=2003
DGENRE=Blues
TTITLE0=Minuteman
TTITLE1=Soul Of The City
TTITLE2=Blue Menagerie
TTITLE3=Reap Just What You Sow
TTITLE4=Monkey Dance
TTITLE5=September Moon
TTITLE6=Rolling The Dice
TTITLE7=Beaver Fever
TTITLE8=I Need You
TTITLE9=Vegas Vows
EXTD=bluesfestradio.com
EXTT0=
EXTT1=
EXTT2=
EXTT3=
EXTT4=
EXTT5=
EXTT6=
EXTT7=
EXTT8=
EXTT9=
PLAYORDER=
